/* XPM */
static char *b5e90fd10f154ba6f6e72207f6d2b042BuezUs4BwJhOVnhG[] = {
/* columns rows colors chars-per-pixel */
"60 60 240 2 ",
"   c None",
".  c #000000",
"X  c #0B0B00",
"o  c #0B0C0C",
"O  c #01080C",
"+  c #1B1B02",
"@  c #171717",
"#  c #041515",
"$  c #282802",
"%  c #313000",
"&  c #3C3B00",
"*  c #2D3308",
"=  c #003939",
"-  c #143232",
";  c #393939",
":  c #2E2C2C",
">  c #092320",
",  c #423E3E",
"<  c #295026",
"1  c #4C4A00",
"2  c #7B7A00",
"3  c #6A6900",
"4  c #003E41",
"5  c #0A4A4A",
"6  c #0A6161",
"7  c #0D786E",
"8  c #2A6260",
"9  c #464646",
"0  c #5A5958",
"q  c #4D4E4E",
"w  c #615B5B",
"e  c #5B5B6D",
"r  c #785D67",
"t  c #676769",
"y  c #75676A",
"u  c #727364",
"i  c #7E7E7E",
"p  c #747474",
"a  c #6E6E7F",
"s  c #5A6B6B",
"d  c #C4190E",
"f  c #C4130F",
"g  c #C41A11",
"h  c red",
"j  c #FE0C00",
"k  c #ED150C",
"l  c #C63803",
"z  c #CD2C0A",
"x  c #FD2602",
"c  c #F83600",
"v  c #F23007",
"b  c #C92625",
"n  c #BB4D00",
"m  c #BF5B00",
"M  c #D34B00",
"N  c #C45900",
"B  c #CF4D00",
"V  c #FA4701",
"C  c #F15200",
"Z  c #C17804",
"A  c #DA7900",
"S  c #CA6F05",
"D  c #FB6800",
"F  c #F97A00",
"G  c #E76B00",
"H  c #F14E22",
"J  c #CF7F4C",
"K  c #DF787F",
"L  c #DE7A7B",
"P  c #7FB739",
"I  c #7C9014",
"U  c #38864D",
"Y  c #2A976D",
"T  c #72BE4D",
"R  c #649E66",
"E  c #57BE67",
"W  c #4ABB73",
"Q  c #5CBA5E",
"!  c #72C756",
"~  c #53C770",
"^  c #6DD86D",
"/  c #79E269",
"(  c #8D8D02",
")  c #828200",
"_  c #928C00",
"`  c #A6A600",
"'  c #BEBE02",
"]  c #B7B503",
"[  c #A6BE17",
"{  c #B7B816",
"}  c #B2AC00",
"|  c #B0AF2D",
" . c #97AB3B",
".. c #D48300",
"X. c #CE8D08",
"o. c #F48B01",
"O. c #C1AF00",
"+. c #CDA900",
"@. c #C6B900",
"#. c #D5AE04",
"$. c #ECAA00",
"%. c #FFAD00",
"&. c #FFA000",
"*. c #EFB900",
"=. c #FBB700",
"-. c #D19E2E",
";. c #F3A930",
":. c #BCC506",
">. c #AAC419",
",. c #B4C915",
"<. c #B2D624",
"1. c #B4EE37",
"2. c #98C12A",
"3. c #C2C201",
"4. c #CBCC00",
"5. c #C8C606",
"6. c #D3CA00",
"7. c #D2D200",
"8. c #DCDB01",
"9. c #DCDC08",
"0. c #C8D012",
"q. c #F2CB00",
"w. c #F7C500",
"e. c #E2DC00",
"r. c #E2D200",
"t. c #FCD600",
"y. c #DCE200",
"u. c #D8E208",
"i. c #D9F115",
"p. c #E3E401",
"a. c #ECEC00",
"s. c #E7E803",
"d. c #FBE500",
"f. c #F5EB00",
"g. c #ECF605",
"h. c #F4F401",
"j. c #FDF300",
"k. c #F5FA01",
"l. c #FEFE00",
"z. c #FDFD0A",
"x. c #FFF20B",
"c. c #E7F912",
"v. c #FCFC18",
"b. c #EEE915",
"n. c #C7C72C",
"m. c #CFF324",
"M. c #E7E528",
"N. c #FFFF24",
"B. c #FBFB27",
"V. c #FFFF33",
"C. c #FEFE3D",
"Z. c #EEEE34",
"A. c #97974F",
"S. c #A2A244",
"D. c #8C8D6E",
"F. c #B0B076",
"G. c #EF8A78",
"H. c #88CB41",
"J. c #8FE355",
"K. c #A7E942",
"L. c #82E361",
"P. c #B0D562",
"I. c #DAD748",
"U. c #D5D355",
"Y. c #CCCE48",
"T. c #E8E849",
"R. c #FEFE49",
"E. c #FFFE58",
"W. c #D7D36D",
"Q. c #EBDD6E",
"!. c #F6F666",
"~. c #FCFC76",
"^. c #E4E36A",
"/. c #D6F345",
"(. c #007E84",
"). c #7B7B82",
"_. c #E07483",
"`. c #009B9B",
"'. c #039495",
"]. c #2EBC8E",
"[. c #00BDBD",
"{. c #0CB8B5",
"}. c #0FAFAB",
"|. c #578D87",
" X c #38CB92",
".X c #1CC5A7",
"XX c #0CC1B6",
"oX c #04C0BC",
"OX c #0AC3B9",
"+X c #11C4B3",
"@X c #24C4A0",
"#X c #4DD386",
"$X c #00BEC4",
"%X c #00BDCE",
"&X c #00BCD0",
"*X c #00C1C2",
"=X c #06C5C8",
"-X c #11C8CB",
";X c #34CDCD",
":X c #6CDBDB",
">X c #838383",
",X c #8D8C8C",
"<X c #898686",
"1X c #979797",
"2X c #A5A5A6",
"3X c #B9B9BA",
"4X c #A4A497",
"5X c #E39895",
"6X c #E79DA4",
"7X c #E89FAA",
"8X c #FAACA0",
"9X c #CDCF92",
"0X c #FCFC99",
"qX c #E9EB8F",
"wX c #C4C4B7",
"eX c #C9C9A5",
"rX c #FEFEA9",
"tX c #FFFFB5",
"yX c #FAFABB",
"uX c #EDECAD",
"iX c #EFD99F",
"pX c #85E1E1",
"aX c #A3E8E8",
"sX c #CACACB",
"dX c #DCDCC9",
"fX c #D6D6D7",
"gX c #C9C9D7",
"hX c #F3DDCB",
"jX c #FEFCC5",
"kX c #F6F6D8",
"lX c #EBEBC8",
"zX c #D8D8E4",
"xX c #D5F5F5",
"cX c #E4E4EB",
"vX c #EBEBE9",
"bX c #F7E0E0",
"nX c #F9E1E6",
"mX c #FFFFFF",
"MX c #F9FCF8",
"NX c #EFFBF2",
/* pixels */
"                                                                                                                        ",
"                                                                                                                        ",
"                                            mXmXmXaX;X[.[.*X*XoX$XoX*X[.*X*X*X*X                                        ",
"                                          xXxXNXxXpX-X[.$X*XoX$X*XoX*X*X*X[.oX*X*X                                      ",
"                                        MXaX:X:X:X;X-X$XoX*X*X$X*X*X*X*XoX$X*X$XoX$X                                    ",
"                                      MXxX:X-X[.=XoX[.*X*XoX*XoX*X*XoX*X*X*X*X*X*XoX*X                                  ",
"                                      pX:X;X[.[.[.[.*X*X=X=X=X=X=X=X=X*X*X$X*X*X*X*X*X                                  ",
"                                      -X=X=XoX*X*XoXXX{.{.{.{.{.{.{.{.XX{.OXXX{.[.oX*X                                  ",
"                                    =X$X$X$X*X*X*X.XW R u y r y y p R E E E E E ].[.=X                                  ",
"                      *X*X*X*X[.*XoX[.oXoXoX*XoX[.~ 2.X.z k k k k z S ,.,.,.:.>.! @X$X                                  ",
"                    *X[.$X*X*X*X{. X~ ~ ^ ~ W W E H.0.*.F C V v h j F r.8.8.e.8.<.E W |.                                ",
"                  oX*X*X*X*X$X*X}.T >.m.m.0.>.[ >.,.g.j.d.q.#...v x o.d.k.j.j.h.u.>. .D.).                              ",
"                  *X*XoX$X$X.X#X^ P.T.b.a.M.I.U.I.M.z.l.l.k.g.#.v x ;.E.E.R.V.l.f.8.@.A.D.                              ",
"                              1./.qXuXI.9.^.yXbXkX~.v.l.l.l.k.q.V x 5XjXkXyX~.z.l.j.u.n.{                               ",
"                              V.E.uXuXW.U.uXmXmXmXyX!.N.z.j.t.&.C H 8XmXmXmXrXR.N.z.a.4.3.                              ",
"                          l.C.0XrX^.U.qXlXkXmXmXmXMXjX~.N.w.D V G -.iXmXmXmXMXyX~.v.a.4.' ' 3.                          ",
"                          l.R.jXlXY.n.qXMXcXgXsXsXcXMXtXV.w.D V -.Y.9XsXgXfXcXMXrXN.a.7.3.3.'                           ",
"                      ' 8.h.R.jXkXU.n.qXvX2Xw 9 0 1XcXtXV.d.w.;.Q.iXD.0 9 0 2XvXrXB.k.h.p.4.{ A.>X                      ",
"                      4.9.b.E.tXrXI.n.0XcXi o . O t zXtXV.l.l.V.yXfXt O . o ).cXrXN.l.l.a.7.{ A.D.                      ",
"                      p.Z.0X0X~.R.b.M.rXzX).O . . e zXyXV.l.l.V.jXzXe . . . ).cXrXN.l.l.h.7.] | |                       ",
"                      l.R.yXtXR.k.l.N.0XlXD.$ o + u dXrXC.l.z.C.tXdXu $ o * i lX0XN.l.l.h.4.3.' '                       ",
"                      l.N.!.E.v.l.l.v.R.~.| ( 2 ( | !.~.^.W.W.^.!.!.{ ( ) _ | !.R.z.l.l.k.7.:.:.@.                      ",
"                      l.z.x.x.j.j.l.l.z.z.z.a.h.h.k.v.T.9XwXwX9XT.z.h.h.a.h.z.z.z.l.l.j.s.6.O.] 3.                      ",
"                      l.t.&.o.o.&.t.l.l.l.l.l.l.l.v.T.qXdXzXgXwX9XT.B.l.l.l.l.l.l.l.t.&.F G A +.'                       ",
"                      l.=.V j j V =.l.l.l.l.l.l.l.T.9XfXvXcXsXwXwX9XZ.z.l.l.l.l.l.l.=.V j j c ..3.                      ",
"                      l.%.x h h x %.l.l.l.l.l.l.z.T.wXgXcXfX3X2X4XW.M.z.l.l.l.l.l.l.%.x h h x ..@.                      ",
"                      l.%.c h h x %.l.l.l.l.l.l.z.T.eXsXsXwX1XD.S.0.s.l.l.l.l.l.l.l.%.c h h v ..:.                      ",
"                      l.w.F V c C o.*.d.l.l.l.l.k.Z.W.9X9XF.D.S.{ 8.h.l.l.l.l.l.d.*.o.M c V D X.3.                      ",
"                      l.j.t.w.#.Z B M $.l.l.l.l.l.v.b.M.n.{ { { 8.h.l.l.l.l.l.l.$.M B ..#.w.q.5.3.                      ",
"                      a.h.l.k.y.@.m l A *.d.l.l.l.l.l.h.8.4.7.9.g.l.l.l.l.l.d.*.A l m O.y.g.p.0.|                       ",
"                      6.y.k.l.k.e.+.X.n M $.l.l.l.l.l.l.k.h.h.k.l.l.l.l.l.l.$.M N Z +.p.a.8.0.S.A.                      ",
"                      ' 8.h.l.l.k.y.@.m l A w.q.q.q.q.q.q.q.q.q.q.q.q.q.q.w.A l N @.y.g.s.5.{ A.).                      ",
"                        s.l.l.l.l.k.e.+.Z N M M M M M M M M M M M M M M B B N Z +.e.a.8.7.3.'  .                        ",
"                          i.c.z.l.l.k.y.@.S d f b b b b b b b b b b b b g z S @.p.k.a.4.:.[ [                           ",
"                          ^ J.i.l.l.l.k.p.+.Z J 5X7X6X6X6X6X6X6X6X6X7X5XJ S +.p.k.l.f.6.[ T W                           ",
"                          *X XK.c.l.l.l.k.e.5.W.hXnXbXbXbXbXbXbXbXnXnXhXW.@.8.k.l.k.p.0.T ].=X                          ",
"                        =X&XOX#XJ.i.l.l.l.k.e.Y.G._.K K K K K K K K _.G.-.:.y.l.k.a.0.!  XXX%X%X                        ",
"                      +XOXOXOXOX XK.l.l.l.l.d.o.z f f f d d d d d f d g Z ' p.h.p.4.P ].}.XXXXXX+X                      ",
"                    1./ ^ / ^ +X.XK.l.l.l.l.l.*.A N N n n n n n n n n N X.8.a.p.] 2 < 6 Y E / / L.K.                    ",
"                  l.z.c.c.c.c.        l.l.l.l.j.f.r.+.] O.@.O.O.O.O.O.@.8.a.p.3.2 $ O # * ,.c.c.c.k.l.                  ",
"                  l.l.l.l.l.l.          l.h.a.j.l.l.y.y.y.y.y.y.8.y.y.y.p.p.] 2 & X . . 1 6.j.5.` 8.h.]                 ",
"                  l.l.    l.l.            4.4.p.k.l.k.j.h.h.k.h.k.k.k.h.p.@.2 % X . . . & 3.7.3 1 ` p.) X               ",
"                l.l.l.    l.l.            Q H.H.K.m.g.h.h.h.a.h.h.h.h.s.<.H.U = > . . . % ) ( % + ` y.2 X .             ",
"                l.l.l.                  [.+X].@X X^ ,.7.7.4.7.7.7.6.7.5.! ].}.`.6 # . . X $ $ . $ ` p.2 X . .           ",
"                  l.                  =X*X=X%X}.'.U I _ _ ( ( ( ( ( _ I W {.=X*X'.5 > O . . . . + 2 ` 3 X . . .         ",
"                                    =X=X=X*X[.(.4 > * % % % % % % % % * 7 $X=X=X[.`.6 # . . . . X $ & $ . . . .         ",
"                                  '.`.`.`.}.}.5 O . . . . . . . . . . # 6 }.}.`.'.'.7 - o . . . . . . . . . . .         ",
"                                t 5 = 4 5 8 |.8 o . . . . . . . . . . O 8 |.8 5 = = 5 q , @ . . . . . . . . . .         ",
"                              ,Xp 9 @ o @ q p 9 o . . . . . . . . . . o ; t 9 @ @ @ 9 p y ; o . . . . . . . . .         ",
"                            ,X2X1X<Xy 0 0 w           . . . . . . . . . @ ; , q w y <X2X1Xt ; @ . . . .                 ",
"                          >X,X2X3X3X2X1XR               . . . . . . . . . o ; t ,X2X3X3X2X1Xt : . . .                   ",
"                          i <X1X2X2X2X1X                      . . . . . . . @ ; r 1X2X4X1X,Xp ,                         ",
"                          >X>X>X>X<X,X                          . . . . . . . o ; p <X<X>X>Xi                           ",
"                            i i ).>X                              . . . . . . . : t |.>Xi i                             ",
"                                                                                                                        ",
"                                                                                                                        ",
"                                                                                                                        ",
"                                                                                                                        ",
"                                                                                                                        ",
"                                                                                                                        "
};
