/* XPM */
static char *_beb8b162677405df0a3d3fca0ecbd24mxi2AJIgSLgde3K5[] = {
/* columns rows colors chars-per-pixel */
"60 60 162 2 ",
"   c None",
".  c #000000",
"X  c #0E0000",
"o  c #000C0C",
"O  c #0E0E0E",
"+  c #150000",
"@  c #1D0101",
"#  c #121212",
"$  c #161919",
"%  c #191919",
"&  c #240101",
"*  c #3A0000",
"=  c #1D2121",
"-  c #212222",
";  c #2C2C2C",
":  c #283030",
">  c #343535",
",  c #343E3E",
"<  c #3A3A3A",
"1  c #410000",
"2  c #520000",
"3  c #592A2A",
"4  c #443C3C",
"5  c #434343",
"6  c #4C4C4C",
"7  c #4F5555",
"8  c #555555",
"9  c #5C5C5C",
"0  c #5E6464",
"q  c #6D6D6D",
"w  c #706F6F",
"e  c #757575",
"r  c #7B7B7B",
"t  c #747A7A",
"y  c #950000",
"u  c #990000",
"i  c #A40000",
"p  c #A90000",
"a  c #BC0000",
"s  c #893434",
"d  c #AE2323",
"f  c #C20000",
"g  c #D30000",
"h  c #DC0000",
"j  c #DE1E1E",
"k  c #EF0000",
"l  c #F30202",
"z  c #FF0101",
"x  c #FD0C0C",
"c  c #F40B0B",
"v  c #E41717",
"b  c #FA1212",
"n  c #F41B1B",
"m  c #FE1A1A",
"M  c #F11212",
"N  c #CE2727",
"B  c #DB2020",
"V  c #D32D2D",
"C  c #CC3131",
"Z  c #F32525",
"A  c #FF2424",
"S  c #F12929",
"D  c #FF2C2C",
"F  c #ED3636",
"G  c #FF3232",
"H  c #FF3C3C",
"J  c #B84141",
"K  c #B24949",
"L  c #A95656",
"P  c #B45959",
"I  c #8F6666",
"U  c #9F6565",
"Y  c #976C6C",
"T  c #867878",
"R  c #9E7979",
"E  c #D04646",
"W  c #CF5757",
"Q  c #E54545",
"!  c #EF4242",
"~  c #E64949",
"^  c #FF4242",
"/  c #E45454",
"(  c #E25A5A",
")  c #FF5A5A",
"_  c #DD6767",
"`  c #DC6B6B",
"'  c #D57B7B",
"]  c #E16060",
"[  c #EB6161",
"{  c #FF6565",
"}  c #FF6B6B",
"|  c #FE7474",
" . c #FF7C7C",
".. c #818181",
"X. c #888888",
"o. c #928282",
"O. c #8F9191",
"+. c #8F9999",
"@. c #939393",
"#. c #989696",
"$. c #969F9F",
"%. c #9D9E9E",
"&. c #A78989",
"*. c #A38686",
"=. c #A4A4A4",
"-. c #A4AFAF",
";. c #ABABAB",
":. c #B7AFAF",
">. c #B1A5A5",
",. c #A9B1B1",
"<. c #B5B5B5",
"1. c #BABABA",
"2. c #D48383",
"3. c #D28A8A",
"4. c #C69090",
"5. c #CA9E9E",
"6. c #D09191",
"7. c #FF8383",
"8. c #FF8E8E",
"9. c #FF9494",
"0. c #C9A4A4",
"q. c #C6AEAE",
"w. c #C4A2A2",
"e. c #C4B5B5",
"r. c #C1BEBE",
"t. c #FFABAB",
"y. c #F2AAAA",
"u. c #ECBABA",
"i. c #FFB3B3",
"p. c #FFBDBD",
"a. c #BEC6C6",
"s. c #BDCACA",
"d. c #C0C0C0",
"f. c gray84",
"g. c #D8D8D8",
"h. c #FFC6C6",
"j. c #FFC4C4",
"k. c #FFCCCC",
"l. c #E2D9D9",
"z. c #FFD2D2",
"x. c #FED9D9",
"c. c #FEDADA",
"v. c #FFDBDB",
"b. c #FFDADA",
"n. c #FEDDDD",
"m. c #DFE4E4",
"M. c gray88",
"N. c #E1E1E1",
"B. c #E2E2E2",
"V. c #E0E0E0",
"C. c gray93",
"Z. c #FFE1E1",
"A. c #FCEBEB",
"S. c gray96",
"D. c #F6F6F6",
"F. c #F5F5F5",
"G. c #FFF1F1",
"H. c #FFF5F5",
"J. c #FFF4F4",
"K. c #FFFAFA",
"L. c white",
"P. c #FFFDFD",
/* pixels */
". . . . . . . . . . . . . . . . . . . . . . . . . . . . . . . . . . . . . . . . . . . . . . . . . . . . . .             ",
". O - : > > : > > > > : > > > : > : > > > > > > > > > > > > > > ; > > > > > > > > > > > > > > > ; ; - # . .             ",
". % e ;.,.,.,.,.-.-.,.,.,.,.,.,.,.,.,.,.-.;.;.-.=.;.;.;.;.;.=.;.;.;.;.;.=.;.;.;.;.;.=.;.;.;.;.;.;.#.e < . . .           ",
". > ;.H.G.v.v.v.v.v.v.v.v.v.x.x.x.v.v.v.v.A.S.D.F.F.F.F.F.F.F.F.F.F.F.F.F.F.F.F.F.F.F.F.D.D.D.K.C.f.=.8 O . # #         ",
". > <.A.i.| { } } } } } } } } } } } } } | y.l.m.B.B.B.B.l.B.B.m.B.B.B.B.B.B.l.B.l.m.B.B.B.B.B.B.g.r.@.5 O - 5 > O       ",
". : ,.v.} x z z x z z x x z x z x z z z m ` e.a.d.d.d.d.d.d.d.d.d.d.d.d.d.d.d.d.d.d.d.d.d.d.d.d.1.%.e > O < q 8 % X     ",
". > -.v.} z z z z z z z z z z z z z z z c _ q.a.d.1.d.1.1.r.a.1.1.d.d.1.a.1.1.r.a.1.r.1.d.1.d.d.<.%.e > O < e e 6 > $ . ",
". > ,.v.} z z z z z z x b x x z z z z z b _ e.a.d.d.d.d.d.r.d.d.d.d.d.d.d.d.a.d.r.d.d.d.d.d.d.d.1.%.e > O > e X.r 6 $ . ",
". : ,.v.} z z z z z D {  . .) m z z z z b _ e.a.d.d.r.d.d.d.d.d.d.d.d.d.d.d.r.r.a.d.d.r.d.d.d.d.1.%.e > O > e X...8 % . ",
". > ,.v.} x z z z x ) h.H.A.t.H z z z z b ` e.a.d.d.r.a.1.d.d.d.1.d.d.d.d.d.r.a.r.d.d.d.d.d.d.f.<.%.e > O < e X.T 8 % . ",
". : ,.v.{ b G { } | t.H.L.L.h.^ z z z z b _ e.a.d.d.d.d.r.d.d.d.r.d.r.r.d.a.r.d.r.r.d.d.d.d.d.d.1.%.e > O > w X...8 % . ",
". > ,.v.{ m } k.v.v.A.K.L.L.p.^ z z z z b _ e.a.d.d.d.r.d.d.d.d.r.a.d.r.d.r.r.d.a.d.d.d.r.d.d.d.1.%.e > O < e X...8 % . ",
". > ,.v.{ m ) t.p.i.z.H.L.L.p.^ z z z z b _ e.a.r.r.d.r.a.d.d.1.a.r.r.a.d.d.d.d.r.r.a.r.d.d.d.d.1.%.e > O < e X...8 % . ",
". > ,.v.{ x b G D H 7.v.L.L.p.^ z z z z b _ e.a.r.a.d.r.r.r.d.d.d.d.r.d.d.d.1.r.r.d.d.r.d.d.d.d.1.%.e > O > e X...8 % . ",
". : ,.v.} x z z z z { v.L.L.p.^ z z z z b _ e.a.d.a.r.a.d.d.d.d.r.r.d.d.d.d.a.r.r.a.a.r.d.d.d.d.<.%.e > O > e X...8 % . ",
". > ,.v.} z z z z z { x.L.L.p.^ z z z z b ` e.a.r.r.d.d.d.d.d.d.a.r.d.d.d.d.d.r.r.d.r.r.d.d.d.d.1.%.e > O < e X...8 % . ",
". > -.v.} x z z z x { v.L.L.p.^ z z z z b _ e.a.a.1.d.d.1.d.d.d.r.d.a.r.d.a.r.a.r.r.a.r.d.d.d.d.1.%.e > O < e X...8 % . ",
". > ,.v.} z z z z z { v.L.L.p.^ z z z z b _ e.a.d.d.r.r.d.d.d.d.r.r.r.r.r.r.r.r.r.d.d.r.d.d.d.d.1.%.e > O > e X...8 % . ",
". > ,.v.} z z z z z { v.L.L.p.^ z z z z b _ e.a.d.d.d.a.d.r.d.d.d.a.a.r.d.r.r.a.a.d.d.a.d.d.d.d.1.%.e > O > e X...8 % . ",
". : ,.v.} x z z z x { v.L.L.p.^ z z z z b ` e.a.d.d.r.d.a.d.d.d.d.r.r.r.r.a.d.d.r.r.r.r.d.d.d.d.<.%.e > O < e X...8 % . ",
". > ,.v.} x z z z x { v.L.L.p.^ z z z z b _ e.a.r.r.d.d.r.d.1.d.r.r.r.r.a.d.a.r.r.r.d.d.d.d.d.d.1.%.e > O > t X.T 8 % . ",
". > ,.x.} z z z z z { v.L.L.p.^ z z z z b _ e.a.d.r.a.r.r.d.d.d.a.d.d.a.r.r.r.d.a.d.d.d.d.d.d.d.1.%.e > O < e X...7 % . ",
". > ,.x.} x z z z x { v.L.L.p.^ z z z z b _ e.a.a.r.a.r.d.d.d.d.r.d.d.r.r.r.r.r.r.d.1.d.d.r.d.d.1.%.e > O > e X...8 % . ",
". : ,.x.} z z z z z { v.L.L.p.^ z z z z b _ e.a.r.r.r.d.d.d.d.d.r.a.r.r.a.d.a.d.r.d.d.d.r.a.d.d.1.%.e > O > e X...8 % . ",
". > ,.x.} z z z z z { v.L.L.p.^ z z z z b ` e.a.d.a.d.d.d.r.a.r.d.d.d.d.d.r.r.r.d.d.d.d.d.d.d.d.<.%.e > O > e X...8 % . ",
". : ,.x.} c z z z x } Z.L.L.j.^ z z z z b ` e.a.r.r.d.d.d.d.d.r.d.d.d.d.r.a.r.a.d.d.d.d.d.d.d.d.1.%.e > O < e X...8 % . ",
". > ,.v.} x z z z z { v.L.L.p.^ z z z z b _ e.a.d.d.d.d.a.d.d.a.d.d.d.r.r.a.r.d.d.d.d.d.d.d.d.d.<.%.e > O > e X.r 8 % . ",
". > ,.v.} z z z z z ^ 9.i.i.7.D z z z z b _ e.a.d.1.d.d.r.r.r.r.d.1.d.r.d.d.r.r.d.d.d.d.d.d.d.d.1.%.e > O > w X...8 % . ",
". : -.v.} z z z z z b D G G A x z z z z b ` e.a.d.d.a.r.r.a.r.r.a.r.r.a.r.r.d.d.d.d.d.d.d.d.d.d.1.%.e > O 4 e X...8 % . ",
". > ,.v.} z z z z z z z z z z z z z z z x _ e.a.a.r.r.d.r.d.r.d.d.r.r.d.d.r.a.d.d.d.d.r.d.r.d.d.1.%.e > O > e X...8 % . ",
". > ,.v.} z z z z z z z z z z z z z z z x _ e.a.r.r.r.r.r.a.a.r.r.r.r.r.a.r.r.d.d.d.d.d.d.d.d.d.1.%.e > O > e X...8 % . ",
". > ,.Z.7.S n Z Z Z Z Z Z Z Z S Z Z Z Z F ' e.a.d.r.a.r.r.d.d.r.a.d.d.a.r.r.d.d.d.r.d.d.d.d.d.r.<.%.e > O < e X...8 % . ",
". > ;.A.u.3.' 2.2.2.2.2.2.2.2.3.3.3.3.2.3.0.r.a.r.d.d.d.r.d.d.r.r.a.r.r.a.r.d.1.d.d.a.r.r.a.r.d.1.%.e > O > e X.T 8 $ . ",
". > ;.D.B.d.1.d.r.r.d.r.r.a.e.0.0.0.5.0.0.e.d.d.d.d.a.d.d.a.d.a.d.d.d.d.d.d.d.d.d.d.d.d.r.d.d.d.<.%.e > O > e X...8 % . ",
". > ;.S.m.d.a.d.a.a.a.a.a.s.q.` ~ Q ~ ~ ] 6.1.s.a.a.a.a.a.a.a.a.a.a.a.a.a.a.a.d.d.d.d.d.d.d.d.d.1.%.e > O 4 e X...8 % . ",
". : ;.S.B.d.a.d.d.d.d.r.1.e.3.! m m m z b _ 0.e.q.q.q.q.q.q.e.0.q.q.q.e.q.q.e.a.d.d.d.d.d.d.d.d.1.%.e > O > e X.T 8 % . ",
". > ;.F.l.d.1.d.a.r.a.d.0.` [ | 7.8.| G z Z / ( ( ( ( ( ( ( ( ( ( ( ( ( / ( 3.e.s.d.d.d.d.d.d.d.1.%.e > O > e X...7 % . ",
". > ;.F.B.d.r.r.r.r.a.d.2.S ^ i.H.G.h.) x z x c c x x x c z x x x x x x z b ( 0.d.d.d.d.d.d.d.d.<.%.e > O < e X...8 % . ",
". > =.F.B.d.a.d.r.d.a.r.' n H k.L.h.7.G z z z z z z z z z z z z z z z z z z S _ 6.d.d.d.d.d.d.d.1.%.e > O < w X...8 % . ",
". > ;.F.m.d.1.d.1.d.a.1.' Z H p.z.{ m z z z z z l z l z l z l z l l l z l z z b ( 0.d.d.d.d.d.d.1.%.e > O > e X...8 % . ",
". > ;.F.B.d.1.d.d.d.a.d.' Z A |  .G z z z z z g i y y y y u y y y y y u g z z z Z ] 3.e.1.d.d.d.1.%.e > O > e X...8 % . ",
". > ;.F.B.d.r.d.d.d.a.d.2.Z z m m x z z z z l u * @ & & & & & & & & @ * y l z z z m / 0.d.d.d.d.1.%.e > O > e X.r 8 % . ",
". > ;.F.B.d.d.d.d.d.d.d.4.E v l z z z z z h i 2 . o = : , , , , , , , < s N M z c j W w.d.d.d.d.1.%.e > O > e X...8 % . ",
". > ;.F.B.d.1.d.d.d.d.d.>.R K v z z z z k y * X . - 8 r X.%.%.%.#.%.%.#.o.U C c j L *.:.d.d.d.d.1.%.e > O < e X...8 % . ",
". > =.F.B.d.1.d.d.d.d.d.<.$.Y d a a a f p 2 . o - 6 X.=.d.d.f.d.d.d.f.a.,.@.P V J T +.<.d.a.a.r.1.%.e > O > e X...8 % . ",
". > ;.F.B.d.d.d.d.d.d.d.1.<.o.3 * * * 1 * + . - 8 X.=.1.d.d.d.d.d.d.d.d.1.;.&.U I T O.<.f.a.d.d.<.%.e > O > e X...8 % . ",
". > ;.F.B.d.d.d.d.d.d.d.d.d.%.6 = $ $ $ $ $ = 7 X.=.1.d.d.d.d.r.d.d.d.d.d.r.;.@.X.X.=.1.d.d.d.d.1.%.e > O < e X...8 % . ",
". > ;.D.B.f.d.d.d.d.d.d.d.d.<.+.t 0 7 7 7 8 9 T ;.a.d.d.d.d.d.r.d.d.d.d.d.a.1.<.,.,.1.d.d.d.d.d.1.=.e > O > e X...8 % . ",
". > =.C.g.1.<.1.1.1.1.1.<.1.1.1.;.O.T ....r ..%.<.1.1.1.<.1.1.1.1.1.1.1.<.1.1.<.<.1.<.1.1.1.1.1.:.#.e > O > e X...8 % . ",
". ; #.f.1.=.%.%.%.%.%.%.%.%.%.=.%.O.X.X.X.X.X.@.%.%.%.%.%.%.%.%.%.=.%.%.%.%.%.%.=.%.%.%.%.%.%.%.%.@.r > O < e X...8 % . ",
". - e =.@.e e e e e e e e e e e e e w e e e e e e e e e e e e e e e e e e e e e e e e e e e e e e r q > O < e X...8 % . ",
". # < 8 5 > > > > > > > > > > > > < < > < > < > > > < > > > > > > > > < < > > > > > < > > > > > > > ; # . < e X...8 % . ",
". . . O O O O O O O O O O O O O O O O O O O O O O O O O O O O O O O O O O O O O O O O O O O O O O O # . O < w ....8 % . ",
". . . . = < < < < > > < > < > < < > > > > < < > > > < > > < > < > < > < < > > < > > < > > < > < < > < < < 4 5 0 r 8 % . ",
"    . # 5 w e e e e e e e e e e e e e e e e e e e e e e e e e e e e e e w e e e e e e e e e e e e e e r q < % < q 8 % . ",
"      O < 8 w ..X.X.X.X.X.X.X.X.X.X.X.X.X.X.X.X.X.X.X.X.X.X.X.X.X.X.X.X.X.X.X.X.X.X.X.X.X.X.X.X.X.X.X.X...q < < 6 > # . ",
"        O % 6 r ............r ..r ....T ..................r ....T ........r ..............r ....r ........r q 6 = X . . ",
"          X > 7 8 8 8 8 8 8 8 8 8 8 8 8 8 8 8 8 8 8 8 8 8 8 8 8 8 8 8 8 8 8 8 8 8 8 8 8 8 8 8 8 8 8 8 8 8 8 8 > O . . . ",
"            $ % % % % % % % % % % % % % % % % % % % $ % % % % % % % $ % % % % % % % % % % % % % % % % % % % % O . . . . ",
"            . . . . . . . . . . . . . . . . . . . . . . . . . . . . . . . . . . . . . . . . . . . . . . . . . . . . . . "
};
