/* XPM */
static char *_ed643e36438408cc98e7fceb059bae5vt4k0N0jE3YRoboz[] = {
/* columns rows colors chars-per-pixel */
"60 60 2 1 ",
"  c #BF0000",
". c #808080",
/* pixels */
".       .       .       .       .       .       .       .   ",
".       .       .       .       .       .       .       .   ",
".       .       .       .       .       .       .       .   ",
".       .       .       .       .       .       .       .   ",
".       .       .       .       .       .       .       .   ",
".       .       .       .       .       .       .       .   ",
".       .       .       .       .       .       .       .   ",
"............................................................",
".       .       .       .       .       .       .       .   ",
".       .       .       .       .       .       .       .   ",
".       .       .       .       .       .       .       .   ",
".       .       .       .       .       .       .       .   ",
".       .       .       .       .       .       .       .   ",
".       .       .       .       .       .       .       .   ",
".       .       .       .       .       .       .       .   ",
"............................................................",
".       .       .       .       .       .       .       .   ",
".       .       .       .       .       .       .       .   ",
".       .       .       .       .       .       .       .   ",
".       .       .       .       .       .       .       .   ",
".       .       .       .       .       .       .       .   ",
".       .       .       .       .       .       .       .   ",
".       .       .       .       .       .       .       .   ",
"............................................................",
".       .       .       .       .       .       .       .   ",
".       .       .       .       .       .       .       .   ",
".       .       .       .       .       .       .       .   ",
".       .       .       .       .       .       .       .   ",
".       .       .       .       .       .       .       .   ",
".       .       .       .       .       .       .       .   ",
".       .       .       .       .       .       .       .   ",
"............................................................",
".       .       .       .       .       .       .       .   ",
".       .       .       .       .       .       .       .   ",
".       .       .       .       .       .       .       .   ",
".       .       .       .       .       .       .       .   ",
".       .       .       .       .       .       .       .   ",
".       .       .       .       .       .       .       .   ",
".       .       .       .       .       .       .       .   ",
"............................................................",
".       .       .       .       .       .       .       .   ",
".       .       .       .       .       .       .       .   ",
".       .       .       .       .       .       .       .   ",
".       .       .       .       .       .       .       .   ",
".       .       .       .       .       .       .       .   ",
".       .       .       .       .       .       .       .   ",
".       .       .       .       .       .       .       .   ",
"............................................................",
".       .       .       .       .       .       .       .   ",
".       .       .       .       .       .       .       .   ",
".       .       .       .       .       .       .       .   ",
".       .       .       .       .       .       .       .   ",
".       .       .       .       .       .       .       .   ",
".       .       .       .       .       .       .       .   ",
".       .       .       .       .       .       .       .   ",
"............................................................",
".       .       .       .       .       .       .       .   ",
".       .       .       .       .       .       .       .   ",
".       .       .       .       .       .       .       .   ",
".       .       .       .       .       .       .       .   "
};
