/* XPM */
static char *_1eb479a76d243f2b21769408573c774jTJ7gfQjC8k1Q7lq[] = {
/* columns rows colors chars-per-pixel */
"60 60 174 2 ",
"   c None",
".  c #010101",
"X  c #0B0B02",
"o  c #04040A",
"O  c #0A0A0A",
"+  c #131305",
"@  c #1C1C0A",
"#  c #090913",
"$  c #0D0D1A",
"%  c #16161E",
"&  c #19191D",
"*  c #232300",
"=  c #2F2F09",
"-  c #3E3E03",
";  c #32320C",
":  c #2A2A1B",
">  c #35351F",
",  c #1A1A26",
"<  c #1E1E2B",
"1  c #151522",
"2  c #252527",
"3  c #2C2C26",
"4  c #24242B",
"5  c #2C2C2D",
"6  c #333326",
"7  c #323229",
"8  c #3C3C29",
"9  c #2B2B3B",
"0  c #2B2B31",
"q  c #34343C",
"w  c #404007",
"e  c #4C4C01",
"r  c #43430C",
"t  c #555502",
"y  c #5F5F1C",
"u  c #656500",
"i  c #6C6C00",
"p  c #7E7E04",
"a  c #63631C",
"s  c #6C6C1D",
"d  c #70701E",
"f  c #4A4A2D",
"g  c #4C4C3E",
"h  c #52523F",
"j  c #5D5D3B",
"k  c #616120",
"l  c #79792E",
"z  c #60603E",
"x  c #353543",
"c  c #40404C",
"v  c #4E4E4F",
"b  c #57574D",
"n  c #404052",
"m  c #4C4C53",
"M  c #4D4D5B",
"N  c #545452",
"B  c #5B5B53",
"V  c #515159",
"C  c #626240",
"Z  c #727242",
"A  c #7B7B4D",
"S  c #646458",
"D  c #7A7A50",
"F  c #78785E",
"G  c #535360",
"H  c #5E5E6C",
"J  c #5C5C64",
"K  c #7D7D66",
"L  c #79796B",
"P  c #76766C",
"I  c #6C6C77",
"U  c #767674",
"Y  c #7A7A77",
"T  c #73737F",
"R  c #7C7C7A",
"E  c #828205",
"W  c #828208",
"Q  c #9F9F00",
"!  c #9C9C0C",
"~  c #90901F",
"^  c #A2A200",
"/  c #ABAB01",
"(  c #A1A10F",
")  c #B1B100",
"_  c #BCBC06",
"`  c #B6B60D",
"'  c #B9B90C",
"]  c #BCBC1D",
"[  c #949426",
"{  c #86863E",
"}  c #8B8B3E",
"|  c #A6A626",
" . c #ABAB2C",
".. c #A3A32A",
"X. c #B4B426",
"o. c #BEBE20",
"O. c #B4B42A",
"+. c #BABA2A",
"@. c #A4A43E",
"#. c #ABAB3E",
"$. c #B4B43F",
"%. c #BCBC3E",
"&. c #C4C401",
"*. c #CCCC00",
"=. c #C0C00B",
"-. c #CFCF08",
";. c #D4D401",
":. c #DADA01",
">. c #D6D60E",
",. c #C4C41E",
"<. c #CBCB1E",
"1. c #DCDC1D",
"2. c #E4E401",
"3. c #EBEB01",
"4. c #E3E30D",
"5. c #E9E90D",
"6. c #F4F402",
"7. c #FEFE01",
"8. c #F2F20D",
"9. c #F9F90D",
"0. c #EFEF11",
"q. c #E4E41C",
"w. c #EBEB1C",
"e. c #C4C420",
"r. c #CECE24",
"t. c #C7C729",
"y. c #CDCD2B",
"u. c #D5D527",
"i. c #DADA24",
"p. c #D4D42C",
"a. c #DADA2C",
"s. c #CECE33",
"d. c #C5C53D",
"f. c #CDCD3D",
"g. c #DADA30",
"h. c #E1E120",
"j. c #878741",
"k. c #888840",
"l. c #97974D",
"z. c #818150",
"x. c #8F8F56",
"c. c #949454",
"v. c #9C9C55",
"b. c #95955B",
"n. c #9C9C5C",
"m. c #A4A44E",
"M. c #ABAB4F",
"N. c #B5B541",
"B. c #BFBF41",
"V. c #B6B64B",
"C. c #B8B84D",
"Z. c #A3A352",
"A. c #AAAA53",
"S. c #A5A55B",
"D. c #ADAD5B",
"F. c #B2B254",
"G. c #B0B05C",
"H. c #808066",
"J. c #86866B",
"K. c #85856C",
"L. c #8C8C69",
"P. c #979766",
"I. c #93936D",
"U. c #99996E",
"Y. c #818173",
"T. c #868678",
"R. c #89897B",
"E. c #8B8B75",
"W. c #A9A962",
"Q. c #C1C142",
"!. c #CFCF41",
"~. c #7A7A84",
"^. c #7E7E8A",
"/. c #80808A",
/* pixels */
"                                                                                                                        ",
"                                                                                                                        ",
"                                                                                                                        ",
"                                                                                                        7.              ",
"                                                                                                      7.7.7.            ",
"                                                                                                      7.7.7.            ",
"                                                                    . . . .                           7.7.7.        . . ",
"                                                                  X O o . . .                         7.7.7.      . . . ",
"                                                                a 8 2 & O X . .                     2.6.7.7.      . . . ",
"                                                        7.3.:._ [ Z b q & . . . .                 &.:.3.7.7.      . . . ",
"                                                      7.7.3.:._  .c.P V 2 O . . . .             &.&.:.3.7.7.      . . . ",
"                                                      7.7.3.:.=. .n.R G 4 o . . . # 9         2.:.:.2.6.7.2.^   . . . . ",
"                                                      7.7.3.;._  .b.R G 4 . . . . 1 n U W.g.9.7.6.3.7.7.7.&.i + . . . . ",
"                                                      7.7.3.:.=.O.v.K.B 7 + X X + 7 B K.F.a.6.7.7.7.7.9.5./ t + . . . . ",
"                                                    7.7.7.3.2.;.,.%.M.} l t e e t l k.A.f.q.9.7.7.7.9.w.r.~ r X . . . . ",
"                                                  7.7.7.7.7.6.3.4.1.u.,.` / / / / ' ,.u.q.8.7.7.7.7.h.!.Z.Z > X . . . . ",
"                                                7.7.7.7.7.7.7.7.7.9.6.6.6.6.6.3.6.6.6.9.7.7.7.7.7.9.u.D.K N 2 o . . . . ",
"                                              7.7.7.7.7.7.7.7.7.7.7.7.7.7.7.7.7.7.7.7.7.7.7.7.7.7.2.e.j.N q % O . . . . ",
"                                            7.7.7.7.7.7.7.7.7.7.7.7.7.7.7.7.7.7.7.7.7.7.7.7.7.7.3.;.! k 3 % O . . .     ",
"                                          7.7.7.7.7.7.7.7.7.7.7.7.7.7.7.7.7.7.6.6.7.9.9.6.9.9.2.;./ p - + . . . .       ",
"                                        7.7.7.7.7.7.7.7.7.7.7.7.7.7.7.7.6.2.4.1.p.p.p.a.a.a.p.] ( p t * . . . .         ",
"                                      7.7.7.7.7.7.7.7.7.7.7.7.7.7.7.7.6.2.;.,.$.A.W.D.D.G.G.A.} a - * X . . .           ",
"                                    7.7.7.7.7.7.7.7.7.7.7.7.7.7.7.7.7.3.;.&.X.v.L.T.Y.R T.T.P B 7 + . . . .             ",
"                                  7.7.7.7.7.7.7.6.3.6.7.7.7.7.7.7.7.7.6.2.;.] @.b.F S V V V m q % . . . .               ",
"                                7.7.7.7.7.7.7.3.2.:.:.6.7.7.7.7.7.7.7.7.6.2.>.e...l f 2 < 4 2 & O . . .                 ",
"                              7.7.7.7.7.7.7.7.3.;.&.;.3.7.7.7.7.7.7.7.7.7.6.3.:.' W e @ O O o o . . .                   ",
"                            7.7.7.7.7.7.7.7.7.4.e.+.e.4.7.7.7.7.7.7.7.7.7.7.7.2.;.^ i - * X . . . .                     ",
"                          7.7.7.7.7.7.7.7.7.7.1.N.Z.N.i.9.7.7.7.7.7.7.7.7.7.7.6.3.&.Q p u -                             ",
"                        7.7.7.7.7.7.7.7.7.7.8.y.m.L.v.u.6.7.7.7.7.9.9.7.7.7.7.7.6.2.;._ )                               ",
"                      7.7.7.7.7.7.7.7.7.9.w.p.#.A S { ,.6.7.7.7.8.h.i.q.8.7.7.7.7.6.2.:.:.;.                            ",
"                    7.7.7.7.7.7.7.7.7.7.w.f.A.D g 8 s ` 6.7.7.9.h.Q.A.d.q.7.7.7.7.7.6.6.2.;.&.                          ",
"                  7.7.7.7.7.7.7.7.7.7.8.p.A.K m 4 @ t / 6.7.7.7.i.A.P.A.p.8.7.7.7.7.7.7.3.:.&.&.                        ",
"                7.7.7.7.7.7.7.6.3.5.q.p.#.z.N 9 $ X e / 3.7.7.9.1.#.v.l.%.u.w.6.7.7.7.7.6.2.;.*.&.                      ",
"        _ ;.3.7.7.7.7.7.7.7.6.3.:.r.Q.A.z.h 5 $ o X e / 6.7.7.7.4.,. .@.m.A.d.q.7.7.7.7.7.6.3.:.*.&.                    ",
"      &.&.:.3.7.7.7.7.7.7.6.2.;._ | l.K B 5 O . . X t ) 6.7.7.7.3.;.=. .c.L.D.s.8.7.7.7.7.7.7.2.;.&.&.                  ",
"    2.:.:.2.6.7.7.7.3.5.h.u.] ! W d z v q % X . . + i &.6.7.7.7.6.2.;.+.b.T.U.C.p.q.5.3.7.7.7.6.2.:.*.&.                ",
"7.7.6.6.6.6.7.7.7.3.:.r.Q.A.k.a w ; 3 2 & O . . .   ^ 2.7.7.7.7.7.6.2.t.S.T.R.U.A.%.r.:.2.7.7.7.6.3.:.*.&.              ",
"7.7.7.9.9.6.6.9.2.*.' | c.K B 3 X X X o o . . .       7.7.7.7.7.7.7.6.u.S.T.~.R H.x.| ' *.2.9.7.7.7.3.;.&.&.            ",
"7.7.0.h.u.p.p.y.] ! W s j v q 1 . . . . . . .         7.7.7.7.7.7.7.9.a.D.T.I H B j s p ! ] u.w.9.7.6.2.;.;.            ",
"    s.V.A.D.D.Z.{ y w ; : 2 1 O . . . . . .           7.7.7.7.7.7.7.9.i.D.Y.H c 5 : = - y { A.f.w.7.7.6.3.2.            ",
"      E.R.R.R.Y.B 6 + o X o X . . . . . .             7.7.7.7.7.7.7.9.a.D.R V 0 O . . + 7 B K D.p.8.7.7.7.7.            ",
"        ~.^.^.T M 4 . . . . . . . . . .               7.7.7.7.7.7.7.6.a.D.Y.V 4 X . . . , x N A @.p.q.9.7.7.            ",
"                                                      7.7.7.7.7.7.7.7.u.D.Y.V 2 . . .   $ , 5 g A Z.f.w.7.7.            ",
"                                                      7.7.7.7.7.7.7.9.a.D.Y.V 4 O .       o + 5 N K.F.a.8.7.            ",
"                                                      3.3.6.6.7.7.7.9.a.D.Y.V 4 o .         . < M Y W.B.s.u.            ",
"                                                      ;.;.2.6.7.7.7.9.a.D.Y.V 2 O .                 I.S.D.A.            ",
"                                                      &.&.:.3.7.7.7.6.a.D.Y.V 2 O .                   R.T.T.            ",
"                                                        &.;.3.7.7.7.9.a.D.Y.V 2 o .                     ~.              ",
"                                                          2.6.7.7.7.6.a.D.Y.V 2 O .                                     ",
"                                                            7.7.7.7.9.a.D.Y.V 4 O .                                     ",
"                                                            3.3.6.7.6.a.D.Y.V 2 o .                                     ",
"                                                            ;.;.2.6.9.a.D.Y.V 4 O .                                     ",
"                                                            &.&.:.6.9.a.G.Y.V 2 O .                                     ",
"                                                              &.:.6.9.a.D.Y.V 4 o .                                     ",
"                                                                3.7.6.a.G.Y.V 4 O .                                     ",
"                                                                  7.9.u.D.Y.V 4 O .                                     ",
"                                                                  3.2.t.S.Y.J 9 O                                       ",
"                                                                  :.>.+.n.Y.I v                                         ",
"                                                                  &._  .c.T.~.                                          ",
"                                                                  &._  .c.T./.                                          "
};
