/* XPM */
static char *_9fc93364e2644dcd9adf65e3e4eb68chntkj6xvk7adW18m[] = {
/* columns rows colors chars-per-pixel */
"60 60 125 2 ",
"   c None",
".  c #000000",
"X  c #0E0E0E",
"o  c #121212",
"O  c #141D1D",
"+  c #191919",
"@  c #221B1B",
"#  c #222222",
"$  c #2B2B2B",
"%  c #353535",
"&  c #3D3636",
"*  c #313A3A",
"=  c #3A3A3A",
"-  c #751010",
";  c #444444",
":  c #4B4B4B",
">  c #555555",
",  c #5C5C5C",
"<  c #646565",
"1  c #6D6D6D",
"2  c #736C6C",
"3  c #6A7373",
"4  c #747474",
"5  c #7B7B7B",
"6  c #872020",
"7  c #DF0303",
"8  c #E40404",
"9  c #ED0A0A",
"0  c #FF0101",
"q  c #FD0B0B",
"w  c #F51515",
"e  c #FC1414",
"r  c #F61C1C",
"t  c #FC1B1B",
"y  c #F42222",
"u  c #FF2323",
"i  c #F22B2B",
"p  c #FF2929",
"a  c #EB3D3D",
"s  c #FF3C3C",
"d  c #A94141",
"f  c #C15B5B",
"g  c #DE5D5D",
"h  c #E94646",
"j  c #E34E4E",
"k  c #E35252",
"l  c #E05D5D",
"z  c #FF5555",
"x  c #FD5F5F",
"c  c #DE6363",
"v  c #DB6C6C",
"b  c #DB7272",
"n  c #D57C7C",
"m  c #DA7878",
"M  c #EC6767",
"N  c #FF6363",
"B  c #FC6E6E",
"V  c #FF7676",
"C  c #FF7878",
"Z  c #808080",
"A  c #888888",
"S  c #8C9191",
"D  c #949494",
"F  c #9B9494",
"G  c #959E9E",
"H  c #9E9E9E",
"J  c #A4A4A4",
"K  c #A7AFAF",
"L  c #ABABAB",
"P  c #B5B5B5",
"I  c #BDB7B7",
"U  c #BBBBBB",
"Y  c #D58282",
"T  c #D28D8D",
"R  c #CD9696",
"E  c #CC9898",
"W  c #D29292",
"Q  c #FF9292",
"!  c #CCA4A4",
"~  c #C6ADAD",
"^  c #C4B4B4",
"/  c #CBB4B4",
"(  c #C2BBBB",
")  c #FFA6A6",
"_  c #FFBEBE",
"`  c #BDC4C4",
"'  c #C0C0C0",
"]  c #C1C0C0",
"[  c #C0C1C1",
"{  c #C1C1C1",
"}  c gray76",
"|  c #C3C3C3",
" . c #C1C4C4",
".. c #C0C7C7",
"X. c gray77",
"o. c #C5C5C5",
"O. c #C0C0C0",
"+. c #C1C8C8",
"@. c #C5CACA",
"#. c #C7CCCC",
"$. c #C5CACA",
"%. c #C8C8C8",
"&. c gray84",
"*. c gray84",
"=. c #D8D8D8",
"-. c #DFDFDF",
";. c #D8D8D8",
":. c #FFC2C2",
">. c #FFC8C8",
",. c #FFDADA",
"<. c gray88",
"1. c #E1E1E1",
"2. c #E2E2E2",
"3. c #E0E0E0",
"4. c gray93",
"5. c gray93",
"6. c #FFE7E7",
"7. c gray96",
"8. c #F6F6F6",
"9. c gray97",
"0. c #F5F5F5",
"q. c #FFF1F1",
"w. c snow",
"e. c gray99",
"r. c white",
/* pixels */
". . . . . . . . . . . . . . . . . . . . . . . . . . . . . . . . . . . . . . . . . . . . . . . . . . . . . .             ",
". X # % % % % % % % % % % % % $ % % % % % % % % % % % $ % % % % $ % % % % % % $ % % % % % % % % % $ # o . .             ",
". + 4 J L L L L L L L L L L L L L L L L L L L L L L L L L L L L L L L L L L L L L L L L L L L L J D 4 % X . .           ",
". % L e.r.7.7.7.7.7.7.7.7.7.7.7.7.7.7.7.7.7.7.7.7.7.7.7.7.7.7.7.7.7.7.7.7.7.7.7.7.7.7.7.7.7.7.e.5.&.L > X . X o         ",
". % L r.7.1.-.1.3.3.3.1.1.1.3.3.-.-.1.-.1.-.-.<.<.<.<.<.-.1.1.-.1.<.<.-.<.-.<.1.-.-.1.-.1.-.1.1.;.U D ; X + ; = X       ",
". % L 7.1.| U | | | ( | ] ] ] ] U | | | | | | | | | | ` U | | | | o.| | | | | | U | | | | | | o.U J 4 % X % 1 > + .     ",
". % L 7.1.U U | U ` ( U ( ` U ` U U U U U U | ` ` ` ` ` ` ` U U U U U ` U U U ( U U U U U U | U P H 4 % o = 4 4 : % + . ",
". % L 7.1.| | U | U | ` | ( | U | | | | | U ( ( I ^ ^ ^ ^ ( ( | | ( | U | | | U | | | | | U | | P H 4 % X % 4 Z 5 : + . ",
". % L 7.1.| U | U U | U | U | | ` | ( | | ` | E v g g g c n ~ ` | U | | ( ` | ` U | | | U | | ( U H 4 % X = 4 A A > + . ",
". % L 7.-.| U | | | | | | U U | ( U | U ( ` ^ b y e r e e a T | ` ` | U ` ( ( ` | | U U | ( ` | P H 4 % X % 4 A 5 > + . ",
". % L 7.1.| U | | U U | | | | | | U | ` ( E m M x N N s q w k Y ~ ( ` | | | ] o.| | | | ` ( ` | U H 5 % X = 4 A Z > + . ",
". $ L 7.1.o.U U | | U | U | U U ` | ` ` ~ c i B >.6.,.Q p 0 q a T ( ` U ( ` | ( | U U | U | | ( P H 4 % X % 4 A Z > + . ",
". % L 7.-.U | | U | | | U | | | ( | ` ` ~ j e V q.w.:.C p 0 0 r Y | ` | U L F A D L P U ` ( | | U H 4 % X = 4 A Z > + . ",
". % L 7.1.| U U U | U | U | U | | U | ` ~ j e C 6._ z t q 0 0 y Y ( +.U L A , % : 5 J P ( | ` | U H 4 % X % 4 A Z > + . ",
". % L 7.1.| U | | | U U | | U U | U | ` ~ k e z ) V e 0 0 0 0 y Y ` ` L A , $ . + : 5 L o.| | ` P H 4 % X % 4 A 5 > + . ",
". % L 7.-.| U | U | | | U | | | ( | ` ` ~ k q e s p q 0 0 0 0 y Y U K A > # X . . + > J ] ..( | U H 4 % X = 4 A Z > + . ",
". $ L 7.1.| U | U | | U ` | | U ` | | ` ^ v i q 0 0 0 0 0 q w h W P S , $ . . . . o : J ] o.| ( U H 4 % X % 4 A Z > + . ",
". % L 7.1.o.U U | | U | ( U | | | U ( ` ( ! n a 0 0 0 0 0 r g W / L < $ X . . . + : 4 L ..| | | P H 5 % X % 4 A Z > + . ",
". % L 7.1.| | | | U U | | U U | | U ` ( | ` ^ b i 9 7 7 w h R | #.J : . . . . o ; 4 H P | ( | o.U H 4 % X = 4 A Z > + . ",
". % L 7.-.| U U U | | | U | | U ` | ( ` | ` o.! n d - 6 f T ^ ..#.J ; . . . @ : 4 J P U | U | ] P H 4 % X % 4 A 5 > + . ",
". % L 7.-.| U | | | | U U | | | ( | | U | U ` ] I 2 @ = F ( ] ] ..J > + . + ; 5 H P U | U | ] o.U H 4 % X = 4 A Z > + . ",
". % L 7.-.| U | | U U | | U U | | U | U | | | %.` 3 O * G $.%.U L F 5 < < < A H P U | | U | ] ] P H 4 % X % 4 A Z > + . ",
". % L 7.1.| U | | U | | | | U | ` U | | U U | o.U 1 + = F o.o.P G A J P U P U U ` ` ( | | | | ] U H 4 % X = 4 A Z > + . ",
". $ L 7.1.o.U | U | | U U | | U ( | U | | | U %.I 3 + = H U L H F J P o.%.%.o.| ( | | U | U U ..P H 4 = X % 4 A Z > + . ",
". % L 7.-.U U | U | | | U | | | U | | U U | | o.U 4 + = F P G S J U | | ` ( | | U | | | U | | | U H 4 % X % 4 A Z > + . ",
". % L 7.-.| U | | U U | | U U | | U | | | U | %.U 1 + % A J H H P | | U U | U | | | U U | U | o.U H 4 % X = 4 A Z > + . ",
". % L 7.1.| U | | | U | | | U | | U U | | U U o.U 4 + # 1 F L I U | | U | | U U U | U | | U U ] P H 4 % X = 4 A Z > + . ",
". % L 7.-.| U | U | | U U | | U | | | U | | | o.U 1 + # 4 J P | | | U | U | | | U | | ( ` | | | U H 4 % X % 4 A 5 > + . ",
". % L 7.1.| U | U | | | U | | U U | | U ( | U o.U 1 + % A U | | | | U ( ` ( | ( | | U | | | | | U H 4 = X = 4 A Z > + . ",
". % L 7.-.| U U | U U | | U | | | U | | ` | | o.U Z ; , J o.| ` U | | ` ( | U ` | U U | U | U | P H 4 % X % 4 A Z > + . ",
". % L 7.1.| | | | | U | | U U | | U U | | U U | | L D H P | ( ` ` ( ( ` ` ( U | | | | | | U U | U H 4 % X % 4 A Z > + . ",
". % L 7.1.o.U U U | | U | | | U | | | U | U | | ( ` | | | ( ` ( | U | ( ` | | | U U | U ( ` | | U H 4 % X % 4 A Z > + . ",
". % L 7.1.| U | U | | | U U | U | U | | U | | | U | | | | U | | U U | | | U | | U | U | U U | | U H 4 % X % 4 A 5 > + . ",
". % L 7.-.| U | U | U | | | | | | U U | U | U | | | | U | U | U | | | U | U | U U | | | | | | | U H 4 % X = 4 A Z > + . ",
". % L 7.1.| U | | | U U | U U | | | | | | | U U U | U | | | | | U | U | U | | | | | U U U | U o.P H 4 % X = 4 A Z > + . ",
". $ L 7.1.o.U U U | | | | | U | U | U U U | | | | | U | U | U U | | U | | | U U | U | | | U | | U H 4 % X % 4 A Z > + . ",
". % L 7.-.U | | | | | U U U | U | U | | | | | U ` ( | | U | | | U | U | U | U | | U U | | | U o.U H 4 % X % 4 A Z > + . ",
". % L 7.1.| U U U U | | | | | | | U U | U U | | U | U | U | U | U | | | U | | | | | | U U | | | P H 4 % X % 4 A Z > + . ",
". % L 7.1.| U | | U | U | U U | | | | | | U | U | | U U | | U U | | U U | | U U U | | | U | U o.U H 4 % X % 4 A 5 > + . ",
". % L 7.-.| U | | | | U | | U | U | U U | | | U U | | | U | | | | U | | | U | | | U U | | U | | U H 4 % X = 4 A Z > + . ",
". $ L 7.1.| U | U | | | U U | U | U | | U | | | | U | | | U | ( U | | U U | | U | U ` ( | ` ( | U H 4 % X % 4 A 5 > + . ",
". % L 7.1.o.U U U | U | | | | | | U U | U | U | | | U U | | U ` | | U | | | U | | | ( ` ` ( | | U H 4 % X = 4 A Z > + . ",
". % L 7.1.| | | | | U U ( ` U | | | | | | | U U U | | | U | U | | U U | | U ` ( U ( | ( | | ` ( P H 4 % X = 4 A Z > + . ",
". % L 7.-.| U U U | | | | | U | U | U U U | | | U | U | U | | | U | | | U | | U | ` U | U U | | U H 4 % X % 4 A Z > + . ",
". % L 7.1.| U | | | U | U | | U | U | | U | | U | | U | U | U U | | | U | U | | ( | ` ( | | U ..U H 4 % X % 4 A Z > + . ",
". % L 7.1.| U | U U | | | U | | | U U | | | U | U | U | | | | | | U U | ( ` ` ( ` U | | ` ( ] ] U H 4 % X % 4 A Z > + . ",
". $ L 7.1.| | U | | | U U | U | | | | | | | U | | U | | | U U | | U | | ` ( ( ` | ( | U o.] ] o.P H 4 % X = 4 A Z > + . ",
". % L 7.1.o.U | | | | | | | | | U | | | U | | | | | | | | | | | | | | | | | | | | | | | | ] ] o.U H 5 % X % 4 A Z > + . ",
". % J 5.;.U P U U P U P U P U P U P U P U P U P P U P U U P P U U P U P U P U P P U P U U P U U L F 4 = X % 4 A Z > + . ",
". $ D &.| H F H H J H H H H H H H H H J H H H H H J H H H H H J H H H J H H H H H J H H H H H H H D 4 = X = 4 A Z > + . ",
". # 4 J S 4 4 4 4 4 4 4 4 4 4 5 4 4 4 4 4 4 4 4 4 4 4 4 4 4 4 4 4 4 4 4 4 4 4 4 4 4 4 4 4 4 4 5 4 4 1 % X = 4 A Z > + . ",
". o = > ; % % = % % % % % % % % % % % % = % % % % % % % % % % % % % % % = % % % % % % % % % % % = = $ o . = 4 A Z > + . ",
". . . X X X X X X X X X X X X X X X X X X X X X o X X X X X X X X X X X X X X X o X X X X X X X X X o . X = 1 A 5 > + . ",
". . . . # = = = = % = % % = % = = = % % = % % = % % % = % = % = % = % % % = % = % % % = % = % = = % = = = ; ; , 5 , + . ",
"    . o ; 1 4 4 4 4 4 4 4 4 4 4 4 4 4 4 4 4 4 4 4 4 4 4 4 4 4 4 4 4 4 4 4 4 4 4 4 4 4 4 4 4 4 4 4 4 4 5 3 ; + = 1 > + . ",
"      o % > 1 A A A A A A A A A A A A A A A A A A A A A A A A A A A A A A A A A A A A A A A A A A A A A Z , = = : % X . ",
"        X + : 5 A 5 Z Z Z 5 Z Z 5 Z Z Z 5 Z Z Z Z Z Z Z Z 5 Z Z Z Z Z Z 5 Z Z Z Z Z Z Z Z 5 Z Z f Z Z Z 5 5 1 : + X . . ",
"          . % > > > > > > > > > > > > > > > > > > > > > > > > > > > > > > > > > > > > > > > > > > > > > > , > % X . . . ",
"            + + + + + + + + + + + + + + + + + + + + + + + + + + + + + + + + + + + + + + + + + + O O O O + + + o . . . . ",
"            . . . . . . . . . . . . . . . . . . . . . . . . . . . . . . . . . . . . . . . . . . . . . X . . . . . . . . "
};
